<?xml version="1.0" encoding="utf-8"?>
<!-- Generator: Adobe Illustrator 24.1.1, SVG Export Plug-In . SVG Version: 6.00 Build 0)  -->
<svg version="1.1" id="Layer_1" xmlns="http://www.w3.org/2000/svg" xmlns:xlink="http://www.w3.org/1999/xlink" x="0px" y="0px"
	 viewBox="0 0 283.5 283.5" style="enable-background:new 0 0 283.5 283.5;" xml:space="preserve">
<style type="text/css">
	.st0{fill:none;stroke:#A2195B;stroke-miterlimit:10;}
	.st1{fill:none;}
	.st2{fill:#A07416;}
	.st3{fill:#EDC52A;}
	.st4{fill:#FFE36F;}
	.st5{fill:#EF8CA0;}
	.st6{fill:#D8254A;}
	.st7{fill:#A01642;}
</style>
<path class="st0" d="M311,119"/>
<path class="st0" d="M311,133.2"/>
<path class="st1" d="M183.4,214.9"/>
<path class="st1" d="M190.5,227.2"/>
<polygon class="st2" points="89.4,234.1 96.8,221.7 187.2,221.7 232.5,143.2 247,143.2 194.7,234.3 "/>
<path class="st1" d="M186,62.9"/>
<path class="st1" d="M190.3,55.6"/>
<polygon class="st3" points="247,140.4 232.6,140.3 187.4,62 96.7,62 89.5,49.4 194.5,49.1 "/>
<polygon class="st4" points="87.2,51.1 94.3,63.7 49.1,142 94.4,220.5 87.2,233.1 34.4,142.2 "/>
<path class="st1" d="M87.7,53.6"/>
<polygon class="st5" points="0.3,143.5 19.5,143.6 79.9,247.7 200.6,247.5 210.3,264.1 70.4,264.8 "/>
<path class="st1" d="M115.4,219.2"/>
<path class="st1" d="M125.8,237.2"/>
<polygon class="st6" points="213.5,262.3 204,245.6 263.9,141.3 203.4,36.8 213,20.1 283.5,140.9 "/>
<polygon class="st7" points="209.5,18.7 199.8,35.2 79.5,35.5 19.3,140.1 0,140.2 69.4,18.7 "/>
<path class="st1" d="M44.7,272.4"/>
<path class="st0" d="M46.6,275.7"/>
<polygon class="st2" points="42.1,0 40.1,3.4 16,3.4 3.9,24.3 0,24.3 14,0 "/>
<path class="st1" d="M45.4,231.8"/>
<path class="st1" d="M46.5,229.9"/>
<polygon class="st3" points="0,25.1 3.9,25.1 15.9,46 40.1,46 42.1,49.3 14,49.4 "/>
<polygon class="st4" points="44.5,50.5 42.6,47.2 54.7,26.3 42.6,5.3 44.5,2 58.6,26.2 "/>
<path class="st1" d="M44.4,49.8"/>
<path class="st1" d="M37,5.7"/>
<polygon class="st2" points="268.9,-0.1 267,3.2 242.8,3.2 230.7,24.2 226.8,24.2 240.8,-0.2 "/>
<polygon class="st3" points="226.8,24.9 230.7,24.9 242.8,45.8 267,45.8 268.9,49.2 240.9,49.3 "/>
<polygon class="st4" points="269.5,48.7 267.6,45.4 279.7,24.5 267.6,3.5 269.5,0.2 283.6,24.4 "/>
<path class="st1" d="M269.4,48.1"/>
<path class="st1" d="M262,3.9"/>
<polygon class="st2" points="268.8,234.1 266.8,237.4 242.7,237.4 230.6,258.4 226.7,258.4 240.7,234 "/>
<polygon class="st3" points="226.7,259.1 230.6,259.1 242.6,280 266.8,280 268.8,283.4 240.7,283.5 "/>
<polygon class="st4" points="269.4,282.9 267.5,279.6 279.5,258.7 267.4,237.7 269.4,234.4 283.5,258.6 "/>
<path class="st1" d="M269.2,282.3"/>
<path class="st1" d="M261.8,238.1"/>
<polygon class="st2" points="42.1,234.1 40.1,237.4 16,237.4 3.9,258.4 0,258.4 14,234 "/>
<polygon class="st3" points="0,259.1 3.9,259.1 15.9,280 40.1,280 42.1,283.4 14,283.5 "/>
<polygon class="st4" points="42.7,282.9 40.8,279.6 52.8,258.7 40.7,237.7 42.7,234.4 56.7,258.6 "/>
<path class="st1" d="M44.5,279.1"/>
<path class="st1" d="M35.1,238.1"/>
</svg>
